<?xml version="1.0"?>
<svg version="1.1" xmlns="http://www.w3.org/2000/svg" width="375px" height="200px" style=""><path fill="#1487d9" d="M101.05517578125,123.75244140625q0-7.31103515625,0.656982421875-14.638916015625t2.745849609375-14.436767578125q0.6064453125-2.12255859375,1.58349609375-4.194580078125t2.39208984375-3.689208984375t3.369140625-2.6279296875t4.6494140625-1.0107421875l0.70751953125,0.0673828125q2.8974609375,0.404296875,4.27880859375,2.341552734375t1.38134765625,4.834716796875q0,0.77490234375-0.185302734375,1.937255859375t-0.589599609375,2.240478515625t-1.094970703125,1.836181640625t-1.735107421875,0.758056640625q-0.4716796875-0.0673828125-0.859130859375-0.16845703125t-0.724365234375-0.43798828125q0.5390625-1.17919921875,0.960205078125-2.45947265625t0.421142578125-2.93115234375q0-0.6064453125-0.10107421875-1.5498046875t-0.387451171875-1.869873046875t-0.758056640625-1.6171875t-1.31396484375-0.690673828125q-2.12255859375,0-3.5712890625,2.375244140625t-2.42578125,6.064453125t-1.44873046875,8.1533203125t-0.724365234375,8.625t-0.286376953125,7.51318359375t-0.03369140625,4.733642578125q0,1.6171875-0.03369140625,3.5712890625l0,0.43798828125q0.03369140625,1.71826171875,0.23583984375,3.26806640625q0.26953125,1.751953125,1.04443359375,3.0322265625t2.42578125,1.482421875q0.50537109375,0.0673828125,0.97705078125,0.0673828125q1.9541015625,0,3.53759765625-1.11181640625q1.9541015625-1.38134765625,3.47021484375-3.588134765625t2.6953125-4.8515625t2.173095703125-5.003173828125t1.937255859375-3.908203125t1.9541015625-1.5498046875q0.3369140625,0,1.0107421875,0.134765625t0.673828125,0.64013671875q0,0.134765625-0.0673828125,0.37060546875t-0.16845703125,0.37060546875q-0.90966796875,3.5712890625-2.307861328125,7.412109375t-3.5712890625,6.990966796875t-5.3232421875,5.137939453125t-7.563720703125,1.98779296875q-3.1669921875,0-5.137939453125-1.196044921875t-3.0322265625-3.20068359375t-1.44873046875-4.531494140625t-0.387451171875-5.12109375z M136.95909667969,125.60546875l0-3.1669921875q0-1.71826171875,0.084228515625-4.868408203125t0.218994140625-6.90673828125t0.37060546875-7.833251953125t0.5390625-7.698486328125t0.724365234375-6.485595703125t0.960205078125-4.2451171875q0.3369140625-0.77490234375,1.11181640625-0.97705078125t1.51611328125-0.2021484375q1.17919921875,0,2.072021484375,0.522216796875t0.892822265625,1.903564453125l-0.6064453125,0.673828125q-1.17919921875,7.78271484375-1.51611328125,15.6328125t-0.4716796875,15.7001953125q0.84228515625-1.31396484375,1.903564453125-2.577392578125t2.3583984375-2.240478515625t2.79638671875-1.566650390625t3.284912109375-0.589599609375q2.291015625,0,3.790283203125,1.38134765625t2.476318359375,3.588134765625t1.44873046875,4.935791015625t0.724365234375,5.4580078125t0.353759765625,5.171630859375t0.30322265625,4.059814453125q-0.64013671875,0.8759765625-1.88671875,0.8759765625l-0.10107421875,0q-0.5390625,0-1.17919921875-0.134765625t-0.84228515625-0.673828125l0.0673828125,0.0673828125q-0.4716796875-1.04443359375-0.64013671875-3.015380859375t-0.26953125-4.34619140625t-0.353759765625-4.868408203125t-0.758056640625-4.5146484375t-1.482421875-3.33544921875t-2.6279296875-1.38134765625l-0.2021484375,0q-1.98779296875,0-3.33544921875,1.212890625q-1.4150390625,1.2802734375-2.291015625,3.369140625t-1.34765625,4.6494140625t-0.724365234375,4.935791015625t-0.387451171875,4.3125t-0.3369140625,2.846923828125q-0.2021484375,0.77490234375-1.196044921875,1.027587890625t-1.701416015625,0.252685546875q-1.65087890625,0-2.6953125-0.943359375q-0.77490234375-1.85302734375-0.90966796875-4.61572265625t-0.134765625-5.390625z M169.19065429687,121.93310546875q0-2.291015625,0.623291015625-4.41357421875t1.869873046875-3.790283203125t3.116455078125-2.66162109375t4.329345703125-0.993896484375q1.51611328125,0,3.352294921875,0.454833984375t3.453369140625,1.34765625t2.6953125,2.274169921875t1.078125,3.1669921875q0,0.84228515625-0.286376953125,1.2802734375t-1.162353515625,0.43798828125l-0.37060546875-0.0673828125q0.97705078125,2.6279296875,1.6845703125,5.390625t1.38134765625,5.525390625q0.26953125,0.5390625,0.404296875,0.960205078125t0.134765625,0.825439453125q0,0.5390625-0.30322265625,0.892822265625t-0.791748046875,0.522216796875t-1.0107421875,0.23583984375t-0.926513671875,0.0673828125q-1.44873046875,0-2.173095703125-0.50537109375t-1.04443359375-1.38134765625t-0.387451171875-1.970947265625t-0.26953125-2.206787109375q-0.404296875,1.31396484375-1.061279296875,2.560546875t-1.5498046875,2.240478515625t-2.105712890625,1.58349609375t-2.72900390625,0.589599609375q-2.2236328125,0-3.73974609375-1.2802734375t-2.442626953125-3.150146484375t-1.34765625-3.992431640625t-0.421142578125-3.94189453125z M173.97483398437,121.46142578125q0,1.24658203125,0.16845703125,2.6279296875t0.555908203125,2.72900390625t0.993896484375,2.543701171875t1.51611328125,2.105712890625q1.65087890625-1.78564453125,2.442626953125-4.34619140625t1.4150390625-4.935791015625t1.4150390625-4.07666015625t2.442626953125-1.701416015625q1.04443359375,0,1.751953125,0.37060546875q-0.3369140625-0.84228515625-1.11181640625-1.634033203125t-1.735107421875-1.44873046875t-1.98779296875-1.078125t-1.937255859375-0.421142578125q-0.26953125,0-0.623291015625,0.084228515625t-0.555908203125,0.016845703125q-1.38134765625,0.404296875-2.274169921875,1.398193359375t-1.44873046875,2.341552734375t-0.791748046875,2.7626953125t-0.23583984375,2.66162109375z M197.00863769531,100.5390625q0-0.4716796875,1.0107421875-0.80859375t2.291015625-0.555908203125t2.476318359375-0.320068359375t1.634033203125-0.16845703125q0-0.90966796875,0.0673828125-1.836181640625t0.37060546875-1.65087890625t0.960205078125-1.162353515625t1.836181640625-0.43798828125q0.97705078125,0,1.482421875,0.23583984375t1.078125,0.97705078125q0.134765625,0.404296875,0.134765625,0.77490234375l0,1.128662109375t-0.0673828125,1.162353515625q1.24658203125-0.134765625,2.476318359375-0.320068359375t2.476318359375-0.185302734375q0.90966796875,0,1.24658203125,0.03369140625t0.673828125,0.80859375q0.26953125,0.77490234375-0.656982421875,1.17919921875t-2.2236328125,0.6064453125t-2.577392578125,0.30322265625t-1.5498046875,0.10107421875q-0.404296875,5.794921875-0.825439453125,11.48876953125t-0.421142578125,11.55615234375q0,2.6279296875,0.16845703125,5.42431640625t0.943359375,5.28955078125q0.2021484375,0.77490234375,0.673828125,1.44873046875t0.4716796875,1.44873046875q0,0.4716796875-0.37060546875,0.7412109375t-0.892822265625,0.454833984375t-1.04443359375,0.218994140625t-0.859130859375,0.03369140625q-2.12255859375,0-3.234375-1.58349609375t-1.600341796875-3.790283203125t-0.522216796875-4.531494140625t-0.03369140625-3.7734375q0-2.96484375,0.117919921875-6.064453125t0.286376953125-6.1318359375t0.4716796875-5.9296875t0.70751953125-5.390625q-1.17919921875,0.134765625-2.307861328125,0.30322265625t-2.307861328125,0.16845703125q-0.26953125,0-0.724365234375-0.03369140625t-0.859130859375-0.16845703125t-0.690673828125-0.37060546875t-0.286376953125-0.673828125z M222.0976171875,122.5732421875q0-1.92041015625,0.488525390625-3.958740234375t1.5498046875-3.67236328125t2.678466796875-2.66162109375t3.908203125-1.027587890625q1.71826171875,0,3.621826171875,0.589599609375t3.487060546875,1.6845703125t2.577392578125,2.678466796875t0.993896484375,3.53759765625q0,2.3583984375-0.859130859375,4.48095703125t-2.408935546875,3.790283203125t-3.621826171875,2.6279296875t-4.497802734375,0.960205078125q-1.98779296875,0-3.47021484375-0.724365234375t-2.476318359375-1.937255859375t-1.482421875-2.86376953125t-0.488525390625-3.50390625z M227.05025390625,122.505859375q0,0.6064453125,0.185302734375,1.78564453125t0.555908203125,2.307861328125t0.960205078125,1.9541015625t1.431884765625,0.758056640625q1.78564453125-0.2021484375,2.947998046875-1.162353515625t1.88671875-2.341552734375t1.0107421875-2.99853515625t0.286376953125-3.06591796875q0-1.85302734375-0.724365234375-3.099609375t-2.375244140625-2.021484375q0,0.0673828125,0.0673828125,0.0673828125t0.0673828125-0.0673828125l-0.84228515625-0.2021484375q-0.3369140625-0.134765625-0.825439453125-0.30322265625t-0.960205078125-0.7412109375q-1.31396484375,0.4716796875-2.038330078125,1.212890625t-1.094970703125,1.802490234375t-0.454833984375,2.543701171875t-0.084228515625,3.5712890625z M246.95075683594,122.5732421875q0-1.92041015625,0.488525390625-3.958740234375t1.5498046875-3.67236328125t2.678466796875-2.66162109375t3.908203125-1.027587890625q1.71826171875,0,3.621826171875,0.589599609375t3.487060546875,1.6845703125t2.577392578125,2.678466796875t0.993896484375,3.53759765625q0,2.3583984375-0.859130859375,4.48095703125t-2.408935546875,3.790283203125t-3.621826171875,2.6279296875t-4.497802734375,0.960205078125q-1.98779296875,0-3.47021484375-0.724365234375t-2.476318359375-1.937255859375t-1.482421875-2.86376953125t-0.488525390625-3.50390625z M251.90339355469,122.505859375q0,0.6064453125,0.185302734375,1.78564453125t0.555908203125,2.307861328125t0.960205078125,1.9541015625t1.431884765625,0.758056640625q1.78564453125-0.2021484375,2.947998046875-1.162353515625t1.88671875-2.341552734375t1.0107421875-2.99853515625t0.286376953125-3.06591796875q0-1.85302734375-0.724365234375-3.099609375t-2.375244140625-2.021484375q0,0.0673828125,0.0673828125,0.0673828125t0.0673828125-0.0673828125l-0.84228515625-0.2021484375q-0.3369140625-0.134765625-0.825439453125-0.30322265625t-0.960205078125-0.7412109375q-1.31396484375,0.4716796875-2.038330078125,1.212890625t-1.094970703125,1.802490234375t-0.454833984375,2.543701171875t-0.084228515625,3.5712890625z M271.80389648438,122.5732421875q0-1.92041015625,0.488525390625-3.958740234375t1.5498046875-3.67236328125t2.678466796875-2.66162109375t3.908203125-1.027587890625q1.71826171875,0,3.621826171875,0.589599609375t3.487060546875,1.6845703125t2.577392578125,2.678466796875t0.993896484375,3.53759765625q0,2.3583984375-0.859130859375,4.48095703125t-2.408935546875,3.790283203125t-3.621826171875,2.6279296875t-4.497802734375,0.960205078125q-1.98779296875,0-3.47021484375-0.724365234375t-2.476318359375-1.937255859375t-1.482421875-2.86376953125t-0.488525390625-3.50390625z M276.75653320313,122.505859375q0,0.6064453125,0.185302734375,1.78564453125t0.555908203125,2.307861328125t0.960205078125,1.9541015625t1.431884765625,0.758056640625q1.78564453125-0.2021484375,2.947998046875-1.162353515625t1.88671875-2.341552734375t1.0107421875-2.99853515625t0.286376953125-3.06591796875q0-1.85302734375-0.724365234375-3.099609375t-2.375244140625-2.021484375q0,0.0673828125,0.0673828125,0.0673828125t0.0673828125-0.0673828125l-0.84228515625-0.2021484375q-0.3369140625-0.134765625-0.825439453125-0.30322265625t-0.960205078125-0.7412109375q-1.31396484375,0.4716796875-2.038330078125,1.212890625t-1.094970703125,1.802490234375t-0.454833984375,2.543701171875t-0.084228515625,3.5712890625z M296.65703613281,122.5732421875q0-1.92041015625,0.488525390625-3.958740234375t1.5498046875-3.67236328125t2.678466796875-2.66162109375t3.908203125-1.027587890625q1.71826171875,0,3.621826171875,0.589599609375t3.487060546875,1.6845703125t2.577392578125,2.678466796875t0.993896484375,3.53759765625q0,2.3583984375-0.859130859375,4.48095703125t-2.408935546875,3.790283203125t-3.621826171875,2.6279296875t-4.497802734375,0.960205078125q-1.98779296875,0-3.47021484375-0.724365234375t-2.476318359375-1.937255859375t-1.482421875-2.86376953125t-0.488525390625-3.50390625z M301.60967285156,122.505859375q0,0.6064453125,0.185302734375,1.78564453125t0.555908203125,2.307861328125t0.960205078125,1.9541015625t1.431884765625,0.758056640625q1.78564453125-0.2021484375,2.947998046875-1.162353515625t1.88671875-2.341552734375t1.0107421875-2.99853515625t0.286376953125-3.06591796875q0-1.85302734375-0.724365234375-3.099609375t-2.375244140625-2.021484375q0,0.0673828125,0.0673828125,0.0673828125t0.0673828125-0.0673828125l-0.84228515625-0.2021484375q-0.3369140625-0.134765625-0.825439453125-0.30322265625t-0.960205078125-0.7412109375q-1.31396484375,0.4716796875-2.038330078125,1.212890625t-1.094970703125,1.802490234375t-0.454833984375,2.543701171875t-0.084228515625,3.5712890625z M321.51017578125,122.5732421875q0-1.92041015625,0.488525390625-3.958740234375t1.5498046875-3.67236328125t2.678466796875-2.66162109375t3.908203125-1.027587890625q1.71826171875,0,3.621826171875,0.589599609375t3.487060546875,1.6845703125t2.577392578125,2.678466796875t0.993896484375,3.53759765625q0,2.3583984375-0.859130859375,4.48095703125t-2.408935546875,3.790283203125t-3.621826171875,2.6279296875t-4.497802734375,0.960205078125q-1.98779296875,0-3.47021484375-0.724365234375t-2.476318359375-1.937255859375t-1.482421875-2.86376953125t-0.488525390625-3.50390625z M326.4628125,122.505859375q0,0.6064453125,0.185302734375,1.78564453125t0.555908203125,2.307861328125t0.960205078125,1.9541015625t1.431884765625,0.758056640625q1.78564453125-0.2021484375,2.947998046875-1.162353515625t1.88671875-2.341552734375t1.0107421875-2.99853515625t0.286376953125-3.06591796875q0-1.85302734375-0.724365234375-3.099609375t-2.375244140625-2.021484375q0,0.0673828125,0.0673828125,0.0673828125t0.0673828125-0.0673828125l-0.84228515625-0.2021484375q-0.3369140625-0.134765625-0.825439453125-0.30322265625t-0.960205078125-0.7412109375q-1.31396484375,0.4716796875-2.038330078125,1.212890625t-1.094970703125,1.802490234375t-0.454833984375,2.543701171875t-0.084228515625,3.5712890625z"/><path fill="#" d=""/></svg>
